<?xml version="1.0" encoding="UTF-8" standalone="no"?>
<!DOCTYPE svg PUBLIC "-//W3C//DTD SVG 1.1//EN"
 "http://www.w3.org/Graphics/SVG/1.1/DTD/svg11.dtd">
<!-- Generated by graphviz version 8.1.0 (20230707.0739)
 -->
<!-- Title: G Pages: 1 -->
<svg width="206pt" height="498pt"
 viewBox="0.00 0.00 205.50 498.45" xmlns="http://www.w3.org/2000/svg" xmlns:xlink="http://www.w3.org/1999/xlink">
<g id="graph0" class="graph" transform="scale(1 1) rotate(0) translate(4 494.45)">
<title>G</title>
<g id="clust2" class="cluster">
<title>cluster_0</title>
<polygon fill="none" stroke="white" stroke-width="1.5" points="71.5,-107.5 71.5,-482.45 189.5,-482.45 189.5,-107.5 71.5,-107.5"/>
<text text-anchor="middle" x="130.5" y="-465.15" font-family="Monserrat" font-size="14.00" fill="white">UNA&#45;10</text>
</g>
<g id="clust3" class="cluster">
<title>cluster_2</title>
<polygon fill="none" stroke="white" stroke-width="1.5" points="76.5,-8 76.5,-87.5 184.5,-87.5 184.5,-8 76.5,-8"/>
<text text-anchor="middle" x="130.5" y="-18.2" font-family="Monserrat" font-size="14.00" fill="white">main</text>
</g>
<!-- HEAD -->
<g id="node1" class="node">
<title>HEAD</title>
<polygon fill="none" stroke="#d2a600" points="43,-431.02 0,-431.02 0,-407.02 43,-407.02 43,-401.02 61,-419.02 43,-437.02 43,-431.02"/>
<text text-anchor="middle" x="30.5" y="-413.59" font-family="Helvetica,sans-Serif" font-size="14.00" fill="white">HEAD &#160;</text>
</g>
<!-- a3 -->
<g id="node2" class="node">
<title>a3</title>
<ellipse fill="none" stroke="#37cdcb" cx="130.5" cy="-419.02" rx="51.09" ry="27.93"/>
<text text-anchor="middle" x="130.5" y="-421.47" font-family="Helvetica,sans-Serif" font-size="14.00" fill="white">531d90d</text>
<text text-anchor="middle" x="130.5" y="-405.72" font-family="Helvetica,sans-Serif" font-size="14.00" fill="white">commit 4</text>
</g>
<!-- a2 -->
<g id="node3" class="node">
<title>a2</title>
<ellipse fill="none" stroke="#37cdcb" cx="130.5" cy="-327.15" rx="51.09" ry="27.93"/>
<text text-anchor="middle" x="130.5" y="-329.6" font-family="Helvetica,sans-Serif" font-size="14.00" fill="white">2f0b408</text>
<text text-anchor="middle" x="130.5" y="-313.85" font-family="Helvetica,sans-Serif" font-size="14.00" fill="white">commit 3</text>
</g>
<!-- a3&#45;&gt;a2 -->
<g id="edge1" class="edge">
<title>a3&#45;&gt;a2</title>
<path fill="none" stroke="white" d="M130.5,-391.05C130.5,-383.22 130.5,-374.51 130.5,-366.13"/>
<polygon fill="white" stroke="white" points="134,-366.41 130.5,-356.41 127,-366.41 134,-366.41"/>
</g>
<!-- a1 -->
<g id="node4" class="node">
<title>a1</title>
<ellipse fill="none" stroke="#37cdcb" cx="130.5" cy="-235.29" rx="51.09" ry="27.93"/>
<text text-anchor="middle" x="130.5" y="-237.74" font-family="Helvetica,sans-Serif" font-size="14.00" fill="white">c8df2a7</text>
<text text-anchor="middle" x="130.5" y="-221.99" font-family="Helvetica,sans-Serif" font-size="14.00" fill="white">commit 2</text>
</g>
<!-- a2&#45;&gt;a1 -->
<g id="edge2" class="edge">
<title>a2&#45;&gt;a1</title>
<path fill="none" stroke="white" d="M130.5,-299.19C130.5,-291.36 130.5,-282.65 130.5,-274.27"/>
<polygon fill="white" stroke="white" points="134,-274.55 130.5,-264.55 127,-274.55 134,-274.55"/>
</g>
<!-- a0 -->
<g id="node5" class="node">
<title>a0</title>
<ellipse fill="none" stroke="#37cdcb" cx="130.5" cy="-143.43" rx="51.09" ry="27.93"/>
<text text-anchor="middle" x="130.5" y="-145.88" font-family="Helvetica,sans-Serif" font-size="14.00" fill="white">28eacf7</text>
<text text-anchor="middle" x="130.5" y="-130.13" font-family="Helvetica,sans-Serif" font-size="14.00" fill="white">commit 1</text>
</g>
<!-- a1&#45;&gt;a0 -->
<g id="edge3" class="edge">
<title>a1&#45;&gt;a0</title>
<path fill="none" stroke="white" d="M130.5,-207.33C130.5,-199.49 130.5,-190.79 130.5,-182.41"/>
<polygon fill="white" stroke="white" points="134,-182.68 130.5,-172.68 127,-182.68 134,-182.68"/>
</g>
<!-- m0 -->
<g id="node6" class="node">
<title>m0</title>
<ellipse fill="none" stroke="#37cdcb" cx="130.5" cy="-61.5" rx="45.57" ry="18"/>
<text text-anchor="middle" x="130.5" y="-56.08" font-family="Helvetica,sans-Serif" font-size="14.00" fill="white">70196b3</text>
</g>
<!-- a0&#45;&gt;m0 -->
<g id="edge4" class="edge">
<title>a0&#45;&gt;m0</title>
<path fill="none" stroke="white" d="M130.5,-115.37C130.5,-107.37 130.5,-98.59 130.5,-90.53"/>
<polygon fill="white" stroke="white" points="134,-90.76 130.5,-80.76 127,-90.76 134,-90.76"/>
</g>
</g>
</svg>
